<svg id="visual" viewBox="0 0 900 600" width="900" height="600" xmlns="http://www.w3.org/2000/svg" xmlns:xlink="http://www.w3.org/1999/xlink" version="1.1"><rect x="0" y="0" width="900" height="600" fill="#1c0937"></rect><path d="M0 394L113 417L225 426L338 414L450 424L563 398L675 399L788 423L900 420L900 601L788 601L675 601L563 601L450 601L338 601L225 601L113 601L0 601Z" fill="#b62282"></path><path d="M0 420L113 442L225 447L338 429L450 433L563 439L675 456L788 426L900 455L900 601L788 601L675 601L563 601L450 601L338 601L225 601L113 601L0 601Z" fill="#aa1983"></path><path d="M0 457L113 469L225 463L338 456L450 471L563 444L675 453L788 454L900 473L900 601L788 601L675 601L563 601L450 601L338 601L225 601L113 601L0 601Z" fill="#9d1084"></path><path d="M0 474L113 473L225 496L338 491L450 472L563 485L675 478L788 483L900 467L900 601L788 601L675 601L563 601L450 601L338 601L225 601L113 601L0 601Z" fill="#8f0985"></path><path d="M0 489L113 507L225 489L338 492L450 520L563 513L675 489L788 491L900 493L900 601L788 601L675 601L563 601L450 601L338 601L225 601L113 601L0 601Z" fill="#800485"></path><path d="M0 532L113 522L225 516L338 526L450 523L563 534L675 530L788 522L900 537L900 601L788 601L675 601L563 601L450 601L338 601L225 601L113 601L0 601Z" fill="#700386"></path><path d="M0 543L113 546L225 546L338 557L450 556L563 549L675 549L788 547L900 550L900 601L788 601L675 601L563 601L450 601L338 601L225 601L113 601L0 601Z" fill="#5e0586"></path><path d="M0 577L113 574L225 568L338 579L450 583L563 573L675 570L788 579L900 563L900 601L788 601L675 601L563 601L450 601L338 601L225 601L113 601L0 601Z" fill="#4a0886"></path></svg>